<svg id="visual" viewBox="0 0 900 600" width="900" height="600" xmlns="http://www.w3.org/2000/svg" xmlns:xlink="http://www.w3.org/1999/xlink" version="1.1"><rect x="0" y="0" width="900" height="600" fill="#212121"></rect><defs><linearGradient id="grad1_0" x1="33.3%" y1="0%" x2="100%" y2="100%"><stop offset="20%" stop-color="#212121" stop-opacity="1"></stop><stop offset="80%" stop-color="#212121" stop-opacity="1"></stop></linearGradient></defs><defs><linearGradient id="grad2_0" x1="0%" y1="0%" x2="66.7%" y2="100%"><stop offset="20%" stop-color="#212121" stop-opacity="1"></stop><stop offset="80%" stop-color="#212121" stop-opacity="1"></stop></linearGradient></defs><g transform="translate(900, 0)"><path d="M0 351.5C-22.2 337.6 -44.4 323.6 -61.3 308C-78.1 292.3 -89.5 275.1 -115.2 278.1C-140.9 281.1 -180.9 304.4 -195.3 292.3C-209.7 280.2 -198.6 232.8 -212.1 212.1C-225.7 191.5 -264 197.6 -275.2 183.9C-286.4 170.2 -270.4 136.7 -277.2 114.8C-283.9 92.9 -313.4 82.7 -329.5 65.6C-345.7 48.4 -348.6 24.2 -351.5 0L0 0Z" fill="#171717"></path></g><g transform="translate(0, 600)"><path d="M0 -351.5C16.6 -316.1 33.2 -280.6 55.4 -278.5C77.6 -276.5 105.4 -307.9 130.9 -316C156.4 -324 179.5 -308.8 191.7 -286.9C203.8 -264.9 204.9 -236.3 222 -222C239.2 -207.8 272.3 -207.9 292.3 -195.3C312.3 -182.7 319.1 -157.5 323.4 -133.9C327.6 -110.3 329.2 -88.4 333.5 -66.3C337.7 -44.3 344.6 -22.1 351.5 0L0 0Z" fill="#171717"></path></g></svg>