<svg id="visual" viewBox="0 0 1920 1080" width="1920" height="1080" xmlns="http://www.w3.org/2000/svg" xmlns:xlink="http://www.w3.org/1999/xlink" version="1.1"><rect x="0" y="0" width="1920" height="1080" fill="#171717"></rect><path d="M0 443L45.7 430.3C91.3 417.7 182.7 392.3 274.2 388.2C365.7 384 457.3 401 548.8 387.8C640.3 374.7 731.7 331.3 823 313.5C914.3 295.7 1005.7 303.3 1097 328.8C1188.3 354.3 1279.7 397.7 1371.2 403.7C1462.7 409.7 1554.3 378.3 1645.8 364.2C1737.3 350 1828.7 353 1874.3 354.5L1920 356L1920 0L1874.3 0C1828.7 0 1737.3 0 1645.8 0C1554.3 0 1462.7 0 1371.2 0C1279.7 0 1188.3 0 1097 0C1005.7 0 914.3 0 823 0C731.7 0 640.3 0 548.8 0C457.3 0 365.7 0 274.2 0C182.7 0 91.3 0 45.7 0L0 0Z" fill="#212121" stroke-linecap="round" stroke-linejoin="miter"></path></svg>